# xmcd
#
# Track frame offsets:
#   150
#   14388
#   31695
#   43833
#   59534
#   72593
#   88158
#   100954
#   118940
#   136347
#   155234
#   174044
#   187910
#   197206
#   210925
#   226559
#   247548
#
# Disc length: 3574 seconds
#
# Revision: 0
# Processed by: cddbd v1.5.1PL0 Copyright (c) Steve Scherf et al.
# Submitted via: Media_Universe 3.0
#
DISCID=de0df411
DTITLE=Lorrie Morgan - To Get To You
DYEAR=1900
DGENRE=Country
TTITLE0=We Both Walk
TTITLE1=Half Enough
TTITLE2=Another Love Song
TTITLE3=Whoop-De-Do
TTITLE4=By My Side
TTITLE5=Good As I Was To You
TTITLE6=Go Away
TTITLE7=To Get To You
TTITLE8=One Of Those Nights
TTITLE9=Maybe Not Tonight
TTITLE10=I Guess You Had To Be There
TTITLE11=Train Wreck Of Emotion
TTITLE12=If I Cry
TTITLE13=Standing Tall
TTITLE14=He Talks To Me
TTITLE15=Something In Red
TTITLE16=Angel
EXTD=
EXTT0=
EXTT1=
EXTT2=
EXTT3=
EXTT4=
EXTT5=
EXTT6=
EXTT7=
EXTT8=
EXTT9=
EXTT10=
EXTT11=
EXTT12=
EXTT13=
EXTT14=
EXTT15=
EXTT16=
PLAYORDER=
